<?xml version="1.0" encoding="UTF-8" standalone="no"?>
<svg
   xmlns:dc="http://purl.org/dc/elements/1.1/"
   xmlns:cc="http://creativecommons.org/ns#"
   xmlns:rdf="http://www.w3.org/1999/02/22-rdf-syntax-ns#"
   xmlns:svg="http://www.w3.org/2000/svg"
   xmlns="http://www.w3.org/2000/svg"
   xmlns:sodipodi="http://sodipodi.sourceforge.net/DTD/sodipodi-0.dtd"
   xmlns:inkscape="http://www.inkscape.org/namespaces/inkscape"
   viewBox="0 0 4096 4096"
   version="1.1"
   id="svg12"
   sodipodi:docname="slack-logo.svg"
   width="4096"
   height="4096"
   style="shape-rendering:geometricPrecision"
   inkscape:export-filename="G:\Users\suitedoalex\sites\svg\slack-logo-0.png"
   inkscape:export-xdpi="96"
   inkscape:export-ydpi="96"
   inkscape:version="0.92.2 (5c3e80d, 2017-08-06)">
  <metadata
     id="metadata18">
    <rdf:RDF>
      <cc:Work
         rdf:about="">
        <dc:format>image/svg+xml</dc:format>
        <dc:type
           rdf:resource="http://purl.org/dc/dcmitype/StillImage" />
        <dc:title></dc:title>
      </cc:Work>
    </rdf:RDF>
  </metadata>
  <defs
     id="defs16" />
  <sodipodi:namedview
     pagecolor="#ffffff"
     bordercolor="#666666"
     borderopacity="1"
     objecttolerance="10"
     gridtolerance="10"
     guidetolerance="10"
     inkscape:pageopacity="0"
     inkscape:pageshadow="2"
     inkscape:window-width="1600"
     inkscape:window-height="837"
     id="namedview14"
     showgrid="false"
     inkscape:zoom="0.041276042"
     inkscape:cx="-4415.9407"
     inkscape:cy="956.60099"
     inkscape:window-x="-8"
     inkscape:window-y="-8"
     inkscape:window-maximized="1"
     inkscape:current-layer="svg12" />
  <path
     d="m 1440.8104,2284.1217 39.7404,-92.8856 c 43.5122,32.2237 100.2666,49.2785 157.0346,49.2785 41.6262,0 68.1108,-16.105 68.1108,-40.7443 -0.9498,-68.2464 -250.6937,-15.1689 -252.5933,-186.7482 -0.9497,-87.2009 76.6314,-154.4976 186.3819,-154.4976 65.2616,0 130.5501,16.1188 176.898,53.0912 l -37.1352,94.8666 c -42.6439,-27.4207 -95.3144,-46.5379 -145.4476,-46.5379 -34.0555,0 -56.7681,16.1051 -56.7681,36.9725 0.9498,67.2966 252.6068,30.3243 255.4425,194.3192 0,89.1002 -75.6952,151.6617 -183.5462,151.6617 -79.4536,0 -152.2995,-18.9543 -208.1313,-58.7761 m 1582.4079,-126.5204 a 115.29982,115.29982 0 0 1 -100.47,58.7489 c -63.7419,0 -115.4085,-51.775 -115.4085,-115.639 0,-63.864 51.6666,-115.639 115.4085,-115.639 a 115.29982,115.29982 0 0 1 100.47,58.7489 l 110.4833,-61.3268 c -41.3821,-73.9585 -120.32,-123.9698 -210.9533,-123.9698 -133.4944,0 -241.7119,108.421 -241.7119,242.1867 0,133.7521 108.2175,242.1866 241.7119,242.1866 90.6333,0 169.5712,-50.0112 210.9533,-123.9697 z m -1119.0377,175.8126 h 138.1209 v -676.4944 h -138.1074 z m 1299.2735,-676.4944 v 676.4944 h 138.1209 v -202.677 l 163.6693,202.677 h 176.5452 l -208.1312,-240.7755 192.9896,-224.6705 H 3497.66 l -156.0985,186.7889 v -397.8373 z m -735.6232,211.0755 v 54.9906 c -22.6991,-37.9222 -78.5174,-64.4611 -137.1712,-64.4611 -121.0933,0 -216.6384,107.1185 -216.6384,241.7119 0,134.5933 95.5451,242.6614 216.6384,242.6614 58.6538,0 114.4721,-26.5388 137.1712,-64.4609 v 54.977 h 138.121 V 1867.995 Z m 0,290.5425 c -19.8633,33.1734 -61.4897,57.7992 -107.8375,57.7992 -63.7555,0 -115.4219,-51.7615 -115.4219,-115.6255 0,-63.864 51.6664,-115.639 115.4219,-115.639 46.3478,0 87.9742,25.5889 107.8375,59.6986 z"
     id="path2"
     inkscape:connector-curvature="0"
     style="stroke-width:13.56787777"
     inkscape:export-xdpi="5.8759589"
     inkscape:export-ydpi="5.8759589" />
  <path
     d="m 711.38774,1641.9677 c -44.76043,0 -81.04093,36.3618 -81.04093,81.2038 a 81.122341,81.122341 0 0 0 81.04093,81.2037 h 81.05449 v -81.2037 a 81.135911,81.135911 0 0 0 -81.05449,-81.2038 m 0,216.5433 H 495.26502 c -44.76043,0 -81.04093,36.362 -81.04093,81.2173 0,44.8419 36.2805,81.2038 81.04093,81.2038 h 216.13629 c 44.74686,0 81.04092,-36.3619 81.04092,-81.2038 0,-44.8553 -36.29406,-81.2173 -81.05449,-81.2173"
     id="path4"
     inkscape:connector-curvature="0"
     style="fill:#36c5f0;stroke-width:13.56787777"
     inkscape:export-xdpi="5.8759589"
     inkscape:export-ydpi="5.8759589" />
  <path
     d="m 1224.6877,1939.7283 c 0,-44.8553 -36.2941,-81.2173 -81.0545,-81.2173 -44.7604,0 -81.0409,36.362 -81.0409,81.2173 v 81.2038 h 81.0409 a 81.135911,81.135911 0 0 0 81.0545,-81.2038 m -216.1226,0 v -216.5568 a 81.135911,81.135911 0 0 0 -81.05465,-81.2038 c -44.76042,0 -81.04092,36.3618 -81.04092,81.2038 v 216.5433 c 0,44.8689 36.2805,81.2309 81.04092,81.2309 a 81.135911,81.135911 0 0 0 81.05465,-81.2038"
     id="path6"
     inkscape:connector-curvature="0"
     style="fill:#2eb67d;stroke-width:13.56787777"
     inkscape:export-xdpi="5.8759589"
     inkscape:export-ydpi="5.8759589" />
  <path
     d="m 927.51045,2454.0323 a 81.135911,81.135911 0 0 0 81.05465,-81.2038 81.135911,81.135911 0 0 0 -81.05465,-81.2037 h -81.04092 v 81.2037 c 0,44.8419 36.2805,81.2038 81.04092,81.2038 m 0,-216.5433 h 216.13635 c 44.7468,0 81.0409,-36.3619 81.0409,-81.2174 a 81.135911,81.135911 0 0 0 -81.0545,-81.2037 H 927.51045 c -44.76042,0 -81.04092,36.362 -81.04092,81.2037 a 81.122341,81.122341 0 0 0 81.04092,81.2038"
     id="path8"
     inkscape:connector-curvature="0"
     style="fill:#ecb22e;stroke-width:13.56787777"
     inkscape:export-xdpi="5.8759589"
     inkscape:export-ydpi="5.8759589" />
  <path
     d="m 414.22409,2156.2716 a 81.122341,81.122341 0 0 0 81.04093,81.2038 81.135911,81.135911 0 0 0 81.0545,-81.2038 v -81.2037 h -81.0545 c -44.76043,0 -81.04093,36.362 -81.04093,81.2037 m 216.12272,0 v 216.5434 c 0,44.8554 36.2805,81.2173 81.04093,81.2173 a 81.135911,81.135911 0 0 0 81.05449,-81.2038 v -216.5569 a 81.122341,81.122341 0 0 0 -81.05449,-81.2037 c -44.76043,0 -81.04093,36.362 -81.04093,81.2037"
     id="path10"
     inkscape:connector-curvature="0"
     style="fill:#e01e5a;stroke-width:13.56787777"
     inkscape:export-xdpi="5.8759589"
     inkscape:export-ydpi="5.8759589" />
  <path
     inkscape:connector-curvature="0"
     style="fill:#36c5f0;stroke-width:32.0554657"
     d="m -2673.3861,962.45265 c -105.751,0 -191.4673,85.90865 -191.4673,191.85195 a 191.65962,191.65962 0 0 0 191.4673,191.8519 h 191.4994 v -191.8519 a 191.69168,191.69168 0 0 0 -191.4994,-191.85195 m 0,511.60525 h -510.6115 c -105.751,0 -191.4673,85.9086 -191.4673,191.884 0,105.9433 85.7163,191.8519 191.4673,191.8519 h 510.6436 c 105.7189,0 191.4673,-85.9086 191.4673,-191.8519 0,-105.9754 -85.7484,-191.884 -191.4994,-191.884"
     id="path4-7"
     inkscape:export-xdpi="5.0135746"
     inkscape:export-ydpi="5.0135746" />
  <path
     inkscape:connector-curvature="0"
     style="fill:#2eb67d;stroke-width:32.0554657"
     d="m -1460.6637,1665.9419 c 0,-105.9754 -85.7484,-191.884 -191.4994,-191.884 -105.7509,0 -191.4673,85.9086 -191.4673,191.884 v 191.8519 h 191.4673 a 191.69168,191.69168 0 0 0 191.4994,-191.8519 m -510.6115,0 v -511.6373 a 191.69168,191.69168 0 0 0 -191.4994,-191.85195 c -105.7509,0 -191.4673,85.90865 -191.4673,191.85195 v 511.6052 c 0,106.0074 85.7164,191.9161 191.4673,191.9161 a 191.69168,191.69168 0 0 0 191.4994,-191.852"
     id="path6-1"
     inkscape:export-xdpi="5.0135746"
     inkscape:export-ydpi="5.0135746" />
  <path
     inkscape:connector-curvature="0"
     style="fill:#ecb22e;stroke-width:32.0554657"
     d="m -2162.7746,2881.0363 a 191.69168,191.69168 0 0 0 191.4994,-191.852 191.69168,191.69168 0 0 0 -191.4994,-191.8519 h -191.4673 v 191.8519 c 0,105.9434 85.7164,191.852 191.4673,191.852 m 0,-511.6052 h 510.6436 c 105.7189,0 191.4673,-85.9087 191.4673,-191.884 a 191.69168,191.69168 0 0 0 -191.4994,-191.852 h -510.6115 c -105.7509,0 -191.4673,85.9087 -191.4673,191.852 a 191.65962,191.65962 0 0 0 191.4673,191.8519"
     id="path8-4"
     inkscape:export-xdpi="5.0135746"
     inkscape:export-ydpi="5.0135746" />
  <path
     inkscape:connector-curvature="0"
     style="fill:#e01e5a;stroke-width:32.0554657"
     d="m -3375.4649,2177.5471 a 191.65962,191.65962 0 0 0 191.4673,191.8519 191.69168,191.69168 0 0 0 191.4994,-191.8519 v -191.852 h -191.4994 c -105.751,0 -191.4673,85.9087 -191.4673,191.852 m 510.6115,0 v 511.6052 c 0,105.9754 85.7163,191.884 191.4673,191.884 a 191.69168,191.69168 0 0 0 191.4994,-191.852 v -511.6372 a 191.65962,191.65962 0 0 0 -191.4994,-191.852 c -105.751,0 -191.4673,85.9087 -191.4673,191.852"
     id="path10-6"
     inkscape:export-xdpi="5.0135746"
     inkscape:export-ydpi="5.0135746" />
</svg>
